<svg id="Layer_1" data-name="Layer 1" xmlns="http://www.w3.org/2000/svg" viewBox="0 0 34.67 25"><defs><style>.cls-1{fill:#333;}</style></defs><path class="cls-1" d="M17.21,25.5a3.27,3.27,0,0,1-2.34-1L2.69,12.35a3.3,3.3,0,0,1,0-4.69L8.87,1.47a3.33,3.33,0,0,1,2.35-1,3.27,3.27,0,0,1,2.34,1L25.74,13.65a3.3,3.3,0,0,1,0,4.69l-6.18,6.19A3.33,3.33,0,0,1,17.21,25.5Zm-6-23.2a1.47,1.47,0,0,0-1.07.45L4,8.93A1.54,1.54,0,0,0,3.52,10,1.5,1.5,0,0,0,4,11.07L16.14,23.25a1.51,1.51,0,0,0,1.07.45,1.47,1.47,0,0,0,1.07-.45l6.19-6.18A1.54,1.54,0,0,0,24.91,16a1.5,1.5,0,0,0-.44-1.07L12.29,2.75A1.51,1.51,0,0,0,11.22,2.3Z" transform="translate(-1.71 -0.5)"/><path class="cls-1" d="M23.76,24.79a.9.9,0,0,1-.64-.26.91.91,0,0,1,0-1.28l6.18-6.18a1.51,1.51,0,0,0,0-2.14L17.12,2.75A.91.91,0,1,1,18.4,1.47L30.58,13.65a3.33,3.33,0,0,1,0,4.69l-6.19,6.19A.89.89,0,0,1,23.76,24.79Z" transform="translate(-1.71 -0.5)"/><path class="cls-1" d="M28.59,24.79a.93.93,0,0,1-.64-.26.91.91,0,0,1,0-1.28l6.19-6.18a1.51,1.51,0,0,0,0-2.14L22,2.75a.91.91,0,0,1,0-1.28.9.9,0,0,1,1.27,0L35.42,13.65a3.33,3.33,0,0,1,0,4.69l-6.19,6.19A.93.93,0,0,1,28.59,24.79Z" transform="translate(-1.71 -0.5)"/></svg>