<svg id="Layer_1" data-name="Layer 1" xmlns="http://www.w3.org/2000/svg" viewBox="0 0 26.75 25.8"><defs><style>.cls-1{fill:#333;}</style></defs><path class="cls-1" d="M14.13,16.56C10.67,16.56,8.06,18,8.06,20a1.76,1.76,0,0,0,0,.33h0v2.37c0,1.52,2.05,3.05,6,3.05s6-1.53,6-3.05V20.28h0c0-.1,0-.22,0-.33C20.19,18,17.59,16.56,14.13,16.56Zm0,5.25c-2.77,0-4.54-1.1-4.54-1.86s1.77-1.86,4.54-1.86,4.54,1.1,4.54,1.86S16.9,21.81,14.13,21.81ZM22.06,1.92a10,10,0,0,0-2.37-.31c-1.91,0-3.23.68-3.52,1.81h0l-.56,2.05c-.41,1.6,2,3,4.53,3.63A11.93,11.93,0,0,0,23,9.49c2.23,0,2.79-.87,2.92-1.39l.55-1.87c.05-.14.05-.14.05-.16C26.92,4.46,25,2.68,22.06,1.92Zm3,3.77c-.06.26-.67.67-2,.67a7.92,7.92,0,0,1-2-.27,7.06,7.06,0,0,1-2.67-1.26c-.53-.44-.72-.83-.67-1s.68-.66,2-.66a7.86,7.86,0,0,1,2,.27C24.07,4,25.14,5.24,25,5.69Zm-15,3.6L9.28,7.6h0A2.81,2.81,0,0,0,6.48,6.16a7.53,7.53,0,0,0-2.91.65,7.19,7.19,0,0,0-2.74,2,2.62,2.62,0,0,0-.61,2.7,2,2,0,0,0,.21.37L1,13.19c.19.43.73,1.14,2.33,1.14h0a8.39,8.39,0,0,0,3.21-.74,8.5,8.5,0,0,0,2.75-1.82C10.39,10.61,10.24,9.72,10.06,9.29Zm-2.59,0a5.7,5.7,0,0,1-2.16,1.53,6,6,0,0,1-2.3.53,2,2,0,0,1-1.27-.34l-.07-.17,0,0h0c-.11-.27,0-.69.4-1.14A5.65,5.65,0,0,1,4.17,8.22a6,6,0,0,1,2.31-.53c.71,0,1.26.2,1.39.51S7.83,8.88,7.47,9.33Z"/></svg>